<svg width="600px" height="396px" viewBox="0 0 600 396" version="1.1" xmlns="http://www.w3.org/2000/svg" xmlns:xlink="http://www.w3.org/1999/xlink">
    <!-- Generator: Sketch 46.2 (44496) - http://www.bohemiancoding.com/sketch -->
    <desc>Created with Sketch.</desc>
    <defs></defs>
    <g id="Page-1" stroke="none" stroke-width="1" fill="none" fill-rule="evenodd">
        <g id="Brittany">
            <rect id="Rectangle-31" fill="#FFFFFF" x="0" y="308" width="600" height="44"></rect>
            <rect id="Rectangle-31-Copy-8" fill="#000000" x="0" y="352" width="600" height="44"></rect>
            <rect id="Rectangle-31-Copy" fill="#000000" x="0" y="264" width="600" height="44"></rect>
            <rect id="Rectangle-31-Copy-2" fill="#FFFFFF" x="0" y="220" width="600" height="44"></rect>
            <rect id="Rectangle-31-Copy-3" fill="#000000" x="0" y="176" width="600" height="44"></rect>
            <rect id="Rectangle-31-Copy-4" fill="#FFFFFF" x="250" y="132" width="350" height="44"></rect>
            <rect id="Rectangle-31-Copy-5" fill="#000000" x="250" y="88" width="350" height="44"></rect>
            <rect id="Rectangle-31-Copy-6" fill="#FFFFFF" x="250" y="44" width="350" height="44"></rect>
            <rect id="Rectangle-31-Copy-7" fill="#000000" x="250" y="0" width="350" height="44"></rect>
            <rect id="Rectangle-30" fill="#FFFFFF" x="0" y="0" width="250" height="176"></rect>
            <g id="brittany_flag_symbol" transform="translate(210.000000, 5.000000)" fill="#000000">
                <polygon id="Triangle-2" points="17.5 13.4727273 35 54.72 17.5 46.5700345 0 54.72"></polygon>
                <polygon id="Triangle-3" transform="translate(17.397059, 51.818182) rotate(180.000000) translate(-17.397059, -51.818182) " points="17.3970588 46.6363636 22.0294118 57 12.7647059 57"></polygon>
                <polygon id="Polygon-3" points="17.2288747 0 20.4684053 8.57833807 17.4058048 12.4108594 14.4117647 8.57833807"></polygon>
                <polygon id="Polygon-3-Copy" transform="translate(23.869686, 12.583317) rotate(90.000000) translate(-23.869686, -12.583317) " points="23.8696864 6.37788707 26.8980067 12.5833168 23.8696864 18.7887464 20.841366 12.5833168"></polygon>
                <polygon id="Polygon-3-Copy-2" transform="translate(11.104980, 12.583317) rotate(270.000000) translate(-11.104980, -12.583317) " points="11.1049805 6.37788707 14.1333008 12.5833168 11.1049805 18.7887464 8.07666016 12.5833168"></polygon>
            </g>
            <g id="brittany_flag_symbol-copy-10" transform="translate(210.000000, 114.000000)" fill="#000000">
                <polygon id="Triangle-2" points="17.5 13.4727273 35 54.72 17.5 46.5700345 0 54.72"></polygon>
                <polygon id="Triangle-3" transform="translate(17.397059, 51.818182) rotate(180.000000) translate(-17.397059, -51.818182) " points="17.3970588 46.6363636 22.0294118 57 12.7647059 57"></polygon>
                <polygon id="Polygon-3" points="17.2288747 0 20.4684053 8.57833807 17.4058048 12.4108594 14.4117647 8.57833807"></polygon>
                <polygon id="Polygon-3-Copy" transform="translate(23.869686, 12.583317) rotate(90.000000) translate(-23.869686, -12.583317) " points="23.8696864 6.37788707 26.8980067 12.5833168 23.8696864 18.7887464 20.841366 12.5833168"></polygon>
                <polygon id="Polygon-3-Copy-2" transform="translate(11.104980, 12.583317) rotate(270.000000) translate(-11.104980, -12.583317) " points="11.1049805 6.37788707 14.1333008 12.5833168 11.1049805 18.7887464 8.07666016 12.5833168"></polygon>
            </g>
            <g id="brittany_flag_symbol-copy" transform="translate(142.000000, 5.000000)" fill="#000000">
                <polygon id="Triangle-2" points="17.5 13.4727273 35 54.72 17.5 46.5700345 0 54.72"></polygon>
                <polygon id="Triangle-3" transform="translate(17.397059, 51.818182) rotate(180.000000) translate(-17.397059, -51.818182) " points="17.3970588 46.6363636 22.0294118 57 12.7647059 57"></polygon>
                <polygon id="Polygon-3" points="17.2288747 0 20.4684053 8.57833807 17.4058048 12.4108594 14.4117647 8.57833807"></polygon>
                <polygon id="Polygon-3-Copy" transform="translate(23.869686, 12.583317) rotate(90.000000) translate(-23.869686, -12.583317) " points="23.8696864 6.37788707 26.8980067 12.5833168 23.8696864 18.7887464 20.841366 12.5833168"></polygon>
                <polygon id="Polygon-3-Copy-2" transform="translate(11.104980, 12.583317) rotate(270.000000) translate(-11.104980, -12.583317) " points="11.1049805 6.37788707 14.1333008 12.5833168 11.1049805 18.7887464 8.07666016 12.5833168"></polygon>
            </g>
            <g id="brittany_flag_symbol-copy-9" transform="translate(142.000000, 114.000000)" fill="#000000">
                <polygon id="Triangle-2" points="17.5 13.4727273 35 54.72 17.5 46.5700345 0 54.72"></polygon>
                <polygon id="Triangle-3" transform="translate(17.397059, 51.818182) rotate(180.000000) translate(-17.397059, -51.818182) " points="17.3970588 46.6363636 22.0294118 57 12.7647059 57"></polygon>
                <polygon id="Polygon-3" points="17.2288747 0 20.4684053 8.57833807 17.4058048 12.4108594 14.4117647 8.57833807"></polygon>
                <polygon id="Polygon-3-Copy" transform="translate(23.869686, 12.583317) rotate(90.000000) translate(-23.869686, -12.583317) " points="23.8696864 6.37788707 26.8980067 12.5833168 23.8696864 18.7887464 20.841366 12.5833168"></polygon>
                <polygon id="Polygon-3-Copy-2" transform="translate(11.104980, 12.583317) rotate(270.000000) translate(-11.104980, -12.583317) " points="11.1049805 6.37788707 14.1333008 12.5833168 11.1049805 18.7887464 8.07666016 12.5833168"></polygon>
            </g>
            <g id="brittany_flag_symbol-copy-2" transform="translate(72.000000, 5.000000)" fill="#000000">
                <polygon id="Triangle-2" points="17.5 13.4727273 35 54.72 17.5 46.5700345 0 54.72"></polygon>
                <polygon id="Triangle-3" transform="translate(17.397059, 51.818182) rotate(180.000000) translate(-17.397059, -51.818182) " points="17.3970588 46.6363636 22.0294118 57 12.7647059 57"></polygon>
                <polygon id="Polygon-3" points="17.2288747 0 20.4684053 8.57833807 17.4058048 12.4108594 14.4117647 8.57833807"></polygon>
                <polygon id="Polygon-3-Copy" transform="translate(23.869686, 12.583317) rotate(90.000000) translate(-23.869686, -12.583317) " points="23.8696864 6.37788707 26.8980067 12.5833168 23.8696864 18.7887464 20.841366 12.5833168"></polygon>
                <polygon id="Polygon-3-Copy-2" transform="translate(11.104980, 12.583317) rotate(270.000000) translate(-11.104980, -12.583317) " points="11.1049805 6.37788707 14.1333008 12.5833168 11.1049805 18.7887464 8.07666016 12.5833168"></polygon>
            </g>
            <g id="brittany_flag_symbol-copy-8" transform="translate(72.000000, 114.000000)" fill="#000000">
                <polygon id="Triangle-2" points="17.5 13.4727273 35 54.72 17.5 46.5700345 0 54.72"></polygon>
                <polygon id="Triangle-3" transform="translate(17.397059, 51.818182) rotate(180.000000) translate(-17.397059, -51.818182) " points="17.3970588 46.6363636 22.0294118 57 12.7647059 57"></polygon>
                <polygon id="Polygon-3" points="17.2288747 0 20.4684053 8.57833807 17.4058048 12.4108594 14.4117647 8.57833807"></polygon>
                <polygon id="Polygon-3-Copy" transform="translate(23.869686, 12.583317) rotate(90.000000) translate(-23.869686, -12.583317) " points="23.8696864 6.37788707 26.8980067 12.5833168 23.8696864 18.7887464 20.841366 12.5833168"></polygon>
                <polygon id="Polygon-3-Copy-2" transform="translate(11.104980, 12.583317) rotate(270.000000) translate(-11.104980, -12.583317) " points="11.1049805 6.37788707 14.1333008 12.5833168 11.1049805 18.7887464 8.07666016 12.5833168"></polygon>
            </g>
            <g id="brittany_flag_symbol-copy-3" transform="translate(4.000000, 5.000000)" fill="#000000">
                <polygon id="Triangle-2" points="17.5 13.4727273 35 54.72 17.5 46.5700345 0 54.72"></polygon>
                <polygon id="Triangle-3" transform="translate(17.397059, 51.818182) rotate(180.000000) translate(-17.397059, -51.818182) " points="17.3970588 46.6363636 22.0294118 57 12.7647059 57"></polygon>
                <polygon id="Polygon-3" points="17.2288747 0 20.4684053 8.57833807 17.4058048 12.4108594 14.4117647 8.57833807"></polygon>
                <polygon id="Polygon-3-Copy" transform="translate(23.869686, 12.583317) rotate(90.000000) translate(-23.869686, -12.583317) " points="23.8696864 6.37788707 26.8980067 12.5833168 23.8696864 18.7887464 20.841366 12.5833168"></polygon>
                <polygon id="Polygon-3-Copy-2" transform="translate(11.104980, 12.583317) rotate(270.000000) translate(-11.104980, -12.583317) " points="11.1049805 6.37788707 14.1333008 12.5833168 11.1049805 18.7887464 8.07666016 12.5833168"></polygon>
            </g>
            <g id="brittany_flag_symbol-copy-7" transform="translate(4.000000, 114.000000)" fill="#000000">
                <polygon id="Triangle-2" points="17.5 12.0576923 35 54.8076923 17.5 46.3608059 0 54.8076923"></polygon>
                <polygon id="Triangle-3" transform="translate(17.500000, 52.067308) rotate(180.000000) translate(-17.500000, -52.067308) " points="17.5 47.1346154 21.875 57 13.125 57"></polygon>
                <polygon id="Polygon-3" points="17.271149 0 20.78125 8.33423036 17.4628567 12.0576923 14.21875 8.33423036"></polygon>
                <polygon id="Polygon-3-Copy" transform="translate(24.062500, 12.605769) rotate(90.000000) translate(-24.062500, -12.605769) " points="24.0625 6.57692308 27.34375 12.6057692 24.0625 18.6346154 20.78125 12.6057692"></polygon>
                <polygon id="Polygon-3-Copy-2" transform="translate(10.937500, 12.605769) rotate(270.000000) translate(-10.937500, -12.605769) " points="10.9375 6.57692308 14.21875 12.6057692 10.9375 18.6346154 7.65625 12.6057692"></polygon>
            </g>
            <g id="brittany_flag_symbol-copy-4" transform="translate(37.000000, 60.000000)" fill="#000000">
                <polygon id="Triangle-2" points="17.5 13 35 54.2472727 17.5 46.0973072 0 54.2472727"></polygon>
                <polygon id="Triangle-3" transform="translate(17.632353, 52.181818) rotate(180.000000) translate(-17.632353, -52.181818) " points="17.6323529 47 22.2647059 57.3636364 13 57.3636364"></polygon>
                <polygon id="Polygon-3" points="17.2288747 0 20.4684053 8.57833807 17.4058048 12.4108594 14.4117647 8.57833807"></polygon>
                <polygon id="Polygon-3-Copy" transform="translate(23.869686, 12.583317) rotate(90.000000) translate(-23.869686, -12.583317) " points="23.8696864 6.37788707 26.8980067 12.5833168 23.8696864 18.7887464 20.841366 12.5833168"></polygon>
                <polygon id="Polygon-3-Copy-2" transform="translate(11.104980, 12.583317) rotate(270.000000) translate(-11.104980, -12.583317) " points="11.1049805 6.37788707 14.1333008 12.5833168 11.1049805 18.7887464 8.07666016 12.5833168"></polygon>
            </g>
            <g id="brittany_flag_symbol-copy-5" transform="translate(107.000000, 60.000000)" fill="#000000">
                <polygon id="Triangle-2" points="17.5 13.4727273 35 54.72 17.5 46.5700345 0 54.72"></polygon>
                <polygon id="Triangle-3" transform="translate(17.397059, 51.818182) rotate(180.000000) translate(-17.397059, -51.818182) " points="17.3970588 46.6363636 22.0294118 57 12.7647059 57"></polygon>
                <polygon id="Polygon-3" points="17.2288747 0 20.4684053 8.57833807 17.4058048 12.4108594 14.4117647 8.57833807"></polygon>
                <polygon id="Polygon-3-Copy" transform="translate(23.869686, 12.583317) rotate(90.000000) translate(-23.869686, -12.583317) " points="23.8696864 6.37788707 26.8980067 12.5833168 23.8696864 18.7887464 20.841366 12.5833168"></polygon>
                <polygon id="Polygon-3-Copy-2" transform="translate(11.104980, 12.583317) rotate(270.000000) translate(-11.104980, -12.583317) " points="11.1049805 6.37788707 14.1333008 12.5833168 11.1049805 18.7887464 8.07666016 12.5833168"></polygon>
            </g>
            <g id="brittany_flag_symbol-copy-6" transform="translate(177.000000, 60.000000)" fill="#000000">
                <polygon id="Triangle-2" points="17.5 13.4727273 35 54.72 17.5 46.5700345 0 54.72"></polygon>
                <polygon id="Triangle-3" transform="translate(17.397059, 51.818182) rotate(180.000000) translate(-17.397059, -51.818182) " points="17.3970588 46.6363636 22.0294118 57 12.7647059 57"></polygon>
                <polygon id="Polygon-3" points="17.2288747 0 20.4684053 8.57833807 17.4058048 12.4108594 14.4117647 8.57833807"></polygon>
                <polygon id="Polygon-3-Copy" transform="translate(23.869686, 12.583317) rotate(90.000000) translate(-23.869686, -12.583317) " points="23.8696864 6.37788707 26.8980067 12.5833168 23.8696864 18.7887464 20.841366 12.5833168"></polygon>
                <polygon id="Polygon-3-Copy-2" transform="translate(11.104980, 12.583317) rotate(270.000000) translate(-11.104980, -12.583317) " points="11.1049805 6.37788707 14.1333008 12.5833168 11.1049805 18.7887464 8.07666016 12.5833168"></polygon>
            </g>
        </g>
    </g>
</svg>