<svg width="600px" height="425px" viewBox="0 0 600 425" version="1.1" xmlns="http://www.w3.org/2000/svg" xmlns:xlink="http://www.w3.org/1999/xlink">
    <!-- Generator: Sketch 46.2 (44496) - http://www.bohemiancoding.com/sketch -->
    <desc>Created with Sketch.</desc>
    <defs></defs>
    <g id="Page-1" stroke="none" stroke-width="1" fill="none" fill-rule="evenodd">
        <g id="Greece">
            <rect id="Rectangle-2-Copy-6" fill="#001489" x="0" y="380" width="600" height="45"></rect>
            <rect id="Rectangle-2-Copy-7" fill="#FFFFFF" x="0" y="230" width="600" height="45"></rect>
            <rect id="Rectangle-2-Copy-8" fill="#FFFFFF" x="0" y="330" width="600" height="45"></rect>
            <rect id="Rectangle-2-Copy-9" fill="#001489" x="0" y="280" width="600" height="45"></rect>
            <rect id="Rectangle-25" fill="#001489" x="0" y="0" width="200" height="225"></rect>
            <rect id="Rectangle-26" fill="#001489" x="200" y="180" width="400" height="45"></rect>
            <rect id="Rectangle-26-Copy" fill="#FFFFFF" x="200" y="135" width="400" height="45"></rect>
            <rect id="Rectangle-26-Copy-2" fill="#001489" x="200" y="91" width="400" height="45"></rect>
            <rect id="Rectangle-27" fill="#FFFFFF" transform="translate(100.500000, 112.500000) rotate(90.000000) translate(-100.500000, -112.500000) " x="-12" y="90" width="225" height="45"></rect>
            <rect id="Rectangle-27-Copy" fill="#FFFFFF" transform="translate(100.000000, 112.500000) rotate(90.000000) translate(-100.000000, -112.500000) " x="77.5" y="12.5" width="45" height="200"></rect>
            <rect id="Rectangle-26-Copy-3" fill="#FFFFFF" x="200" y="46" width="400" height="45"></rect>
            <rect id="Rectangle-26-Copy-4" fill="#001489" x="200" y="1" width="400" height="45"></rect>
        </g>
    </g>
</svg>