
<svg width="102px" height="102px" viewBox="0 0 102 102" version="1.1" xmlns="http://www.w3.org/2000/svg" xmlns:xlink="http://www.w3.org/1999/xlink">
    <!-- Generator: Sketch 46.2 (44496) - http://www.bohemiancoding.com/sketch -->
    <desc>Created with Sketch.</desc>
    <defs></defs>
    <g id="Page-1" stroke="none" stroke-width="1" fill="none" fill-rule="evenodd">
        <g id="soccer_ball" transform="translate(1.000000, 1.000000)" stroke="#000000">
            <path d="M49.7421846,0.161856878 L68.2470706,1.47320826 L66.6204938,6.37568189 C63.7226951,7.51300214 61.5264028,8.22929935 60.0316169,8.5245735 C56.6440212,9.19374588 52.148856,9.12145406 50.3367197,9.14814597 C46.1104329,9.21039717 41.9393881,8.94465828 38.9480868,8.11402803 C37.2899978,7.65360672 35.37556,6.75404819 34.0698164,6.56758778 C32.030528,6.27637701 31.4245293,4.70679342 32.2518204,1.858837 L49.7421846,0.161856878 Z" id="Polygon-7" fill="#000000" transform="translate(50.070379, 4.659336) rotate(180.000000) translate(-50.070379, -4.659336) "></path>
            <path d="M36.7752025,63.1469321 L62.4227834,63.7966219 L74.3147841,78.9555648 L60.8174574,92.8311877 C55.5912439,93.3900886 51.6715837,93.669539 49.058477,93.669539 C46.4453702,93.669539 43.2228221,93.3900886 39.3908326,92.8311877 L25.4444819,78.9555648 L36.7752025,63.1469321 Z" id="Polygon-5" fill="#FFFFFF"></path>
            <path d="M83.0491785,17.9760499 L88.3368914,17.9760499 C89.7351006,19.7402213 90.7094461,21.0420342 91.2599278,21.8814888 C94.6142364,26.9966258 96.3773653,30.865878 96.9321013,33.2482221 C97.3061787,34.8547176 98.7642255,38.9485895 99.0597747,40.2538414 C99.6497134,42.8592229 100.217497,46.7865252 99.7138445,48.844347 C99.6667738,49.036668 98.5908247,49.9725675 96.4859972,51.6520453 L89.8424522,39.7078099 C88.4141511,37.6734185 87.4446722,35.9502129 86.9340155,34.538193 C86.4233589,33.1261731 85.8647284,31.2787072 85.258124,28.9957953 L83.0491785,17.9760499 Z" id="Polygon-6" fill="#000000"></path>
            <path d="M0,18.1063123 L5.99471439,18.1063123 C7.94265541,21.2546031 9.30658246,23.5117278 10.0864955,24.8776864 C12.0959141,28.3970306 13.5364059,31.3056533 13.9733273,33.1820364 C14.3474047,34.788532 15.8054515,38.8824039 16.1010007,40.1876557 C16.6909394,42.7930372 17.2587235,46.7203396 16.7550705,48.7781613 C16.7079998,48.9704824 15.6320507,49.9063818 13.5272232,51.5858596 L6.88367826,39.6416243 C5.35642308,37.6072329 4.33746717,35.8840273 3.82681053,34.4720074 C3.31615389,33.0599875 2.80700037,31.2125216 2.29934998,28.9296096 L0,18.1063123 Z" id="Polygon-6-Copy" fill="#000000" transform="translate(8.474681, 34.846086) scale(-1, 1) translate(-8.474681, -34.846086) "></path>
            <circle id="Oval-29" cx="49.833887" cy="50" r="49.833887"></circle>
            <polygon id="Polygon-2" fill="#000000" points="50.0830565 24.7508306 70.6525125 39.3854374 62.6447 63.7542826 37.2229288 63.7542826 29.0762562 39.3854374"></polygon>
            <polygon id="Polygon-3" fill="#FFFFFF" transform="translate(31.726472, 23.406525) rotate(-5.000000) translate(-31.726472, -23.406525) " points="33.5157708 7.61310915 51.1256034 10.9515161 49.7936551 26.1757541 27.9048725 39.1999402 12.3273401 32.8678775 17.7721679 16.3662832"></polygon>
            <polygon id="Polygon-3-Copy" fill="#FFFFFF" transform="translate(68.344141, 23.404950) scale(-1, 1) rotate(-5.000000) translate(-68.344141, -23.404950) " points="70.0862194 7.43983155 87.696052 10.7782386 86.3641038 26.0024765 64.0860535 39.3700677 48.9922305 32.492762 54.7710236 15.4338763"></polygon>
            <polygon id="Polygon-4" fill="#FFFFFF" points="80.0469788 36.4124792 86.8405246 34.1829319 96.2663517 51.4489462 90.7456309 70.1392494 74.2983999 78.8632618 62.3442691 63.5797342 70.7979956 39.4719425"></polygon>
            <polygon id="Polygon-4-Copy" fill="#FFFFFF" transform="translate(20.550314, 56.622700) scale(-1, 1) translate(-20.550314, -56.622700) " points="21.2236057 36.5065667 27.9111945 34.3655913 37.5765677 51.7315329 32.2096917 70.1720178 15.5339948 78.8798082 3.52406042 63.2838455 11.977787 39.1760538"></polygon>
            <path d="M66.293994,2.78239203 C67.8875152,3.25053936 68.994286,3.61174852 69.6143065,3.86601952 C70.9954794,4.43243983 72.0265595,5.05432893 72.7613684,5.3863424 C75.3958348,6.5766905 77.3746252,7.71156472 78.8251402,8.69627284 C81.2911678,10.37038 84.5122018,13.4214078 88.4882423,17.8493563 L83.2115604,17.8493563 L68.245659,7.39656873 L66.293994,2.78239203 Z" id="Polygon-8" fill="#FFFFFF"></path>
            <path d="M11.2956811,2.99003322 C12.8892022,3.45818056 13.9959731,3.81938972 14.6159936,4.07366071 C15.9971664,4.64008103 17.0282466,5.26197013 17.7630554,5.5939836 C20.3975219,6.7843317 22.3763123,7.91920592 23.8268272,8.90391404 C26.2928548,10.5780212 29.5138889,13.629049 33.4899294,18.0569975 L27.8566886,18.0569975 L12.7417073,7.46421434 L11.2956811,2.99003322 Z" id="Polygon-8-Copy" fill="#FFFFFF" transform="translate(22.392805, 10.523515) scale(-1, 1) translate(-22.392805, -10.523515) "></path>
            <path d="M96.3799055,51.3555077 L99.7106001,48.1286337 C99.6285583,51.5340469 99.536666,53.9386606 99.4349232,55.3424747 C99.2182996,58.3313753 98.8793364,60.7180822 98.4180336,62.5025955 C97.9583176,64.2809708 95.674188,70.092483 94.4339182,72.7542307 C93.8465291,74.0148285 93.2465326,74.9314779 92.6339286,75.5041788 L90.5425924,70.0996678 L96.3799055,51.3555077 Z" id="Polygon-9" fill="#FFFFFF"></path>
            <path d="M5.83731312,51.3996314 L9.16800768,48.1727575 C9.08596591,51.5781707 8.9940736,53.9827843 8.89233076,55.3865984 C8.67570717,58.375499 8.33674399,60.762206 7.87544124,62.5467193 C7.41572517,64.3250946 5.13159564,70.1366068 3.89132579,72.7983544 C3.30393673,74.0589523 2.70394019,74.9756016 2.09133617,75.5483025 L0,70.1437915 L5.83731312,51.3996314 Z" id="Polygon-9-Copy" fill="#FFFFFF" transform="translate(4.584004, 61.860530) scale(-1, 1) translate(-4.584004, -61.860530) "></path>
            <path d="M40.0109985,93.1543293 L60.6578333,92.8571429 L66.2281328,97.0378686 C65.2055647,97.525887 63.9362497,97.9329502 62.4201879,98.2590583 C59.2099996,98.9495767 52.5665431,99.8828383 50.5145608,99.8942328 C48.4522265,99.9056848 41.8785599,99.0791007 38.559619,98.4180336 C37.0111714,98.1096137 35.5541683,97.7861476 34.1886096,97.4476355 L40.0109985,93.1543293 Z" id="Polygon-10" fill="#FFFFFF"></path>
            <path d="M74.3142974,78.9891443 L90.4854911,70.221657 L92.6121911,75.5518714 C90.9666852,78.0332897 89.782103,79.732595 89.0584445,80.6497872 C86.2666988,84.1881516 83.5750599,86.7059474 81.5186358,88.4214078 C79.6973364,89.9407282 76.9736309,91.9567224 73.3207018,93.9005399 C71.9371835,94.6367455 69.5618547,95.7147494 66.1947155,97.1345515 L60.5935943,92.9277084 L74.3142974,78.9891443 Z" id="Polygon-11" fill="#000000"></path>
            <path d="M21.3761745,78.9995263 L37.4977289,70.2657807 L39.8898204,75.4684904 C37.5857914,78.8382331 35.900383,81.1564065 34.833595,82.4230105 C32.4678851,85.231833 30.2345198,87.044357 28.5308737,88.4655316 C26.7277877,89.9696584 24.1160684,91.880819 20.4503867,93.8719892 C19.0233291,94.647156 16.5242808,95.8384432 12.9532418,97.4458511 L6.9777175,93.1458939 L21.3761745,78.9995263 Z" id="Polygon-11-Copy" fill="#000000" transform="translate(23.433769, 83.855816) scale(-1, 1) translate(-23.433769, -83.855816) "></path>
        </g>
    </g>
</svg>