<svg width="802px" height="400px" viewBox="0 0 802 400" version="1.1" xmlns="http://www.w3.org/2000/svg" xmlns:xlink="http://www.w3.org/1999/xlink">
    <!-- Generator: Sketch 46.2 (44496) - http://www.bohemiancoding.com/sketch -->
    <desc>Created with Sketch.</desc>
    <defs></defs>
    <g id="Page-1" stroke="none" stroke-width="1" fill="none" fill-rule="evenodd">
        <g id="Honduras">
            <rect id="Rectangle-2-Copy-2" fill="#006BD7" x="2" y="0" width="800" height="133.330002"></rect>
            <rect id="Rectangle-2-Copy-4" fill="#FFFFFF" x="2" y="133" width="800" height="133.330002"></rect>
            <rect id="Rectangle-2-Copy-5" fill="#006BD7" x="0" y="266" width="800" height="133.330002"></rect>
            <polygon id="Star-2-Copy-4" fill="#006BD7" points="402.5 201.097142 391.038188 209.275831 395.274688 195.847646 383.954398 187.474169 398.034512 187.353783 402.5 174 406.965488 187.353783 421.045602 187.474169 409.725312 195.847646 413.961812 209.275831"></polygon>
            <polygon id="Star-2-Copy-5" fill="#006BD7" points="294.5 166.097142 283.038188 174.275831 287.274688 160.847646 275.954398 152.474169 290.034512 152.353783 294.5 139 298.965488 152.353783 313.045602 152.474169 301.725312 160.847646 305.961812 174.275831"></polygon>
            <polygon id="Star-2-Copy-7" fill="#006BD7" points="510.5 240.097142 499.038188 248.275831 503.274688 234.847646 491.954398 226.474169 506.034512 226.353783 510.5 213 514.965488 226.353783 529.045602 226.474169 517.725312 234.847646 521.961812 248.275831"></polygon>
            <polygon id="Star-2-Copy-8" fill="#006BD7" points="510.5 166.097142 499.038188 174.275831 503.274688 160.847646 491.954398 152.474169 506.034512 152.353783 510.5 139 514.965488 152.353783 529.045602 152.474169 517.725312 160.847646 521.961812 174.275831"></polygon>
            <polygon id="Star-2-Copy-6" fill="#006BD7" points="294.5 240.097142 283.038188 248.275831 287.274688 234.847646 275.954398 226.474169 290.034512 226.353783 294.5 213 298.965488 226.353783 313.045602 226.474169 301.725312 234.847646 305.961812 248.275831"></polygon>
        </g>
    </g>
</svg>