
<svg width="659px" height="399px" viewBox="0 0 659 399" version="1.1" xmlns="http://www.w3.org/2000/svg" xmlns:xlink="http://www.w3.org/1999/xlink">
    <!-- Generator: Sketch 46.2 (44496) - http://www.bohemiancoding.com/sketch -->
    <desc>Created with Sketch.</desc>
    <defs></defs>
    <g id="Page-1" stroke="none" stroke-width="1" fill="none" fill-rule="evenodd">
        <g id="America">
            <rect id="Rectangle-21" fill="#B22234" x="1" y="368" width="657.5" height="30.7600002"></rect>
            <rect id="Rectangle-21-Copy" fill="#FFFFFF" x="1" y="338" width="657.5" height="30.7600002"></rect>
            <rect id="Rectangle-21-Copy-2" fill="#B22234" x="1" y="307" width="657.5" height="30.7600002"></rect>
            <rect id="Rectangle-21-Copy-3" fill="#FFFFFF" x="1" y="280" width="657.5" height="30.7600002"></rect>
            <rect id="Rectangle-21-Copy-4" fill="#B22234" x="0" y="249" width="657.5" height="30.7600002"></rect>
            <rect id="Rectangle-21-Copy-5" fill="#FFFFFF" x="1" y="218" width="657.5" height="30.7600002"></rect>
            <rect id="Rectangle-21-Copy-6" fill="#B22234" x="264" y="187" width="394.5" height="30.7600002"></rect>
            <rect id="Rectangle-21-Copy-7" fill="#FFFFFF" x="264" y="156" width="394.5" height="30.7600002"></rect>
            <rect id="Rectangle-21-Copy-8" fill="#B22234" x="264" y="125" width="394.5" height="30.7600002"></rect>
            <rect id="Rectangle-21-Copy-9" fill="#FFFFFF" x="264" y="92" width="394.5" height="30.7600002"></rect>
            <rect id="Rectangle-21-Copy-10" fill="#B22234" x="264" y="61" width="394" height="30.7600002"></rect>
            <rect id="Rectangle-21-Copy-11" fill="#FFFFFF" x="264" y="30" width="394.5" height="30.7600002"></rect>
            <rect id="Rectangle-21-Copy-12" fill="#B22234" x="264" y="0" width="394.5" height="30"></rect>
            <g id="Usa" transform="translate(1.000000, 0.000000)">
                <rect id="Rectangle-22" fill="#3C3B6E" x="0" y="0" width="263" height="218"></rect>
                <polygon id="Path" fill="#FFFFFF" points="20.2729167 26.6891233 13.1616631 31.7688442 15.7901157 23.4287015 8.76666667 18.227999 17.5023933 18.1532283 20.2729167 9.85929648 23.04344 18.1532283 31.7791667 18.227999 24.7557176 23.4287015 27.3841702 31.7688442"></polygon>
                <polygon id="Path-Copy-6" fill="#FFFFFF" points="20.2729167 68.317264 13.1616631 73.3969849 15.7901157 65.0568422 8.76666667 59.8561397 17.5023933 59.781369 20.2729167 51.4874372 23.04344 59.781369 31.7791667 59.8561397 24.7557176 65.0568422 27.3841702 73.3969849"></polygon>
                <polygon id="Path-Copy-10" fill="#FFFFFF" points="42.1895833 48.598671 35.0783298 53.678392 37.7067824 45.3382493 30.6833333 40.1375468 39.41906 40.0627761 42.1895833 31.7688442 44.9601067 40.0627761 53.6958333 40.1375468 46.6723843 45.3382493 49.3008369 53.678392"></polygon>
                <polygon id="Path-Copy-7" fill="#FFFFFF" points="19.1770833 112.136359 12.0658298 117.21608 14.6942824 108.875938 7.67083333 103.675235 16.40656 103.600465 19.1770833 95.3065327 21.9476067 103.600465 30.6833333 103.675235 23.6598843 108.875938 26.2883369 117.21608"></polygon>
                <polygon id="Path-Copy-11" fill="#FFFFFF" points="42.1895833 134.045907 35.0783298 139.125628 37.7067824 130.785485 30.6833333 125.584783 39.41906 125.510012 42.1895833 117.21608 44.9601067 125.510012 53.6958333 125.584783 46.6723843 130.785485 49.3008369 139.125628"></polygon>
                <polygon id="Path-Copy-13" fill="#FFFFFF" points="42.1895833 90.2268117 35.0783298 95.3065327 37.7067824 86.96639 30.6833333 81.7656875 39.41906 81.6909168 42.1895833 73.3969849 44.9601067 81.6909168 53.6958333 81.7656875 46.6723843 86.96639 49.3008369 95.3065327"></polygon>
                <polygon id="Path-Copy-12" fill="#FFFFFF" points="41.09375 177.865003 33.9824964 182.944724 36.6109491 174.604581 29.5875 169.403878 38.3232267 169.329108 41.09375 161.035176 43.8642733 169.329108 52.6 169.403878 45.5765509 174.604581 48.2050036 182.944724"></polygon>
                <polygon id="Path-Copy-8" fill="#FFFFFF" points="20.2729167 154.859978 13.1616631 159.939698 15.7901157 151.599556 8.76666667 146.398853 17.5023933 146.324083 20.2729167 138.030151 23.04344 146.324083 31.7791667 146.398853 24.7557176 151.599556 27.3841702 159.939698"></polygon>
                <polygon id="Path-Copy-9" fill="#FFFFFF" points="20.2729167 200.870028 13.1616631 205.949749 15.7901157 197.609606 8.76666667 192.408904 17.5023933 192.334133 20.2729167 184.040201 23.04344 192.334133 31.7791667 192.408904 24.7557176 197.609606 27.3841702 205.949749"></polygon>
                <polygon id="Path-Copy" fill="#FFFFFF" points="240.535417 26.6891233 233.424163 31.7688442 236.052616 23.4287015 229.029167 18.227999 237.764893 18.1532283 240.535417 9.85929648 243.30594 18.1532283 252.041667 18.227999 245.018218 23.4287015 247.64667 31.7688442"></polygon>
                <polygon id="Path-Copy-2" fill="#FFFFFF" points="64.10625 26.6891233 56.9949964 31.7688442 59.6234491 23.4287015 52.6 18.227999 61.3357267 18.1532283 64.10625 9.85929648 66.8767733 18.1532283 75.6125 18.227999 68.5890509 23.4287015 71.2175036 31.7688442"></polygon>
                <polygon id="Path-Copy-3" fill="#FFFFFF" points="152.86875 26.6891233 145.757496 31.7688442 148.385949 23.4287015 141.3625 18.227999 150.098227 18.1532283 152.86875 9.85929648 155.639273 18.1532283 164.375 18.227999 157.351551 23.4287015 159.980004 31.7688442"></polygon>
                <polygon id="Path-Copy-26" fill="#FFFFFF" points="132.047917 48.598671 124.936663 53.678392 127.565116 45.3382493 120.541667 40.1375468 129.277393 40.0627761 132.047917 31.7688442 134.81844 40.0627761 143.554167 40.1375468 136.530718 45.3382493 139.15917 53.678392"></polygon>
                <polygon id="Path-Copy-27" fill="#FFFFFF" points="132.047917 90.2268117 124.936663 95.3065327 127.565116 86.96639 120.541667 81.7656875 129.277393 81.6909168 132.047917 73.3969849 134.81844 81.6909168 143.554167 81.7656875 136.530718 86.96639 139.15917 95.3065327"></polygon>
                <polygon id="Path-Copy-28" fill="#FFFFFF" points="130.952083 132.95043 123.84083 138.030151 126.469282 129.690008 119.445833 124.489306 128.18156 124.414535 130.952083 116.120603 133.722607 124.414535 142.458333 124.489306 135.434884 129.690008 138.063337 138.030151"></polygon>
                <polygon id="Path-Copy-30" fill="#FFFFFF" points="151.772917 200.870028 144.661663 205.949749 147.290116 197.609606 140.266667 192.408904 149.002393 192.334133 151.772917 184.040201 154.54344 192.334133 163.279167 192.408904 156.255718 197.609606 158.88417 205.949749"></polygon>
                <polygon id="Path-Copy-31" fill="#FFFFFF" points="151.772917 155.955455 144.661663 161.035176 147.290116 152.695033 140.266667 147.494331 149.002393 147.41956 151.772917 139.125628 154.54344 147.41956 163.279167 147.494331 156.255718 152.695033 158.88417 161.035176"></polygon>
                <polygon id="Path-Copy-32" fill="#FFFFFF" points="152.86875 112.136359 145.757496 117.21608 148.385949 108.875938 141.3625 103.675235 150.098227 103.600465 152.86875 95.3065327 155.639273 103.600465 164.375 103.675235 157.351551 108.875938 159.980004 117.21608"></polygon>
                <polygon id="Path-Copy-33" fill="#FFFFFF" points="152.86875 68.317264 145.757496 73.3969849 148.385949 65.0568422 141.3625 59.8561397 150.098227 59.781369 152.86875 51.4874372 155.639273 59.781369 164.375 59.8561397 157.351551 65.0568422 159.980004 73.3969849"></polygon>
                <polygon id="Path-Copy-34" fill="#FFFFFF" points="175.88125 48.598671 168.769996 53.678392 171.398449 45.3382493 164.375 40.1375468 173.110727 40.0627761 175.88125 31.7688442 178.651773 40.0627761 187.3875 40.1375468 180.364051 45.3382493 182.992504 53.678392"></polygon>
                <polygon id="Path-Copy-35" fill="#FFFFFF" points="175.88125 90.2268117 168.769996 95.3065327 171.398449 86.96639 164.375 81.7656875 173.110727 81.6909168 175.88125 73.3969849 178.651773 81.6909168 187.3875 81.7656875 180.364051 86.96639 182.992504 95.3065327"></polygon>
                <polygon id="Path-Copy-36" fill="#FFFFFF" points="174.785417 134.045907 167.674163 139.125628 170.302616 130.785485 163.279167 125.584783 172.014893 125.510012 174.785417 117.21608 177.55594 125.510012 186.291667 125.584783 179.268218 130.785485 181.89667 139.125628"></polygon>
                <polygon id="Path-Copy-37" fill="#FFFFFF" points="175.88125 176.769525 168.769996 181.849246 171.398449 173.509104 164.375 168.308401 173.110727 168.23363 175.88125 159.939698 178.651773 168.23363 187.3875 168.308401 180.364051 173.509104 182.992504 181.849246"></polygon>
                <polygon id="Path-Copy-38" fill="#FFFFFF" points="218.61875 176.769525 211.507496 181.849246 214.135949 173.509104 207.1125 168.308401 215.848227 168.23363 218.61875 159.939698 221.389273 168.23363 230.125 168.308401 223.101551 173.509104 225.730004 181.849246"></polygon>
                <polygon id="Path-Copy-39" fill="#FFFFFF" points="197.797917 154.859978 190.686663 159.939698 193.315116 151.599556 186.291667 146.398853 195.027393 146.324083 197.797917 138.030151 200.56844 146.324083 209.304167 146.398853 202.280718 151.599556 204.90917 159.939698"></polygon>
                <polygon id="Path-Copy-40" fill="#FFFFFF" points="197.797917 111.040882 190.686663 116.120603 193.315116 107.78046 186.291667 102.579758 195.027393 102.504987 197.797917 94.2110553 200.56844 102.504987 209.304167 102.579758 202.280718 107.78046 204.90917 116.120603"></polygon>
                <polygon id="Path-Copy-41" fill="#FFFFFF" points="196.702083 68.317264 189.59083 73.3969849 192.219282 65.0568422 185.195833 59.8561397 193.93156 59.781369 196.702083 51.4874372 199.472607 59.781369 208.208333 59.8561397 201.184884 65.0568422 203.813337 73.3969849"></polygon>
                <polygon id="Path-Copy-42" fill="#FFFFFF" points="219.714583 48.598671 212.60333 53.678392 215.231782 45.3382493 208.208333 40.1375468 216.94406 40.0627761 219.714583 31.7688442 222.485107 40.0627761 231.220833 40.1375468 224.197384 45.3382493 226.825837 53.678392"></polygon>
                <polygon id="Path-Copy-43" fill="#FFFFFF" points="219.714583 89.1313343 212.60333 94.2110553 215.231782 85.8709126 208.208333 80.6702101 216.94406 80.5954394 219.714583 72.3015075 222.485107 80.5954394 231.220833 80.6702101 224.197384 85.8709126 226.825837 94.2110553"></polygon>
                <polygon id="Path-Copy-44" fill="#FFFFFF" points="64.10625 155.955455 56.9949964 161.035176 59.6234491 152.695033 52.6 147.494331 61.3357267 147.41956 64.10625 139.125628 66.8767733 147.41956 75.6125 147.494331 68.5890509 152.695033 71.2175036 161.035176"></polygon>
                <polygon id="Path-Copy-45" fill="#FFFFFF" points="220.810417 132.95043 213.699163 138.030151 216.327616 129.690008 209.304167 124.489306 218.039893 124.414535 220.810417 116.120603 223.58094 124.414535 232.316667 124.489306 225.293218 129.690008 227.92167 138.030151"></polygon>
                <polygon id="Path-Copy-46" fill="#FFFFFF" points="241.63125 155.955455 234.519996 161.035176 237.148449 152.695033 230.125 147.494331 238.860727 147.41956 241.63125 139.125628 244.401773 147.41956 253.1375 147.494331 246.114051 152.695033 248.742504 161.035176"></polygon>
                <polygon id="Path-Copy-47" fill="#FFFFFF" points="196.702083 199.77455 189.59083 204.854271 192.219282 196.514129 185.195833 191.313426 193.93156 191.238655 196.702083 182.944724 199.472607 191.238655 208.208333 191.313426 201.184884 196.514129 203.813337 204.854271"></polygon>
                <polygon id="Path-Copy-48" fill="#FFFFFF" points="242.727083 198.679073 235.61583 203.758794 238.244282 195.418651 231.220833 190.217949 239.95656 190.143178 242.727083 181.849246 245.497607 190.143178 254.233333 190.217949 247.209884 195.418651 249.838337 203.758794"></polygon>
                <polygon id="Path-Copy-49" fill="#FFFFFF" points="242.727083 111.040882 235.61583 116.120603 238.244282 107.78046 231.220833 102.579758 239.95656 102.504987 242.727083 94.2110553 245.497607 102.504987 254.233333 102.579758 247.209884 107.78046 249.838337 116.120603"></polygon>
                <polygon id="Path-Copy-50" fill="#FFFFFF" points="241.63125 68.317264 234.519996 73.3969849 237.148449 65.0568422 230.125 59.8561397 238.860727 59.781369 241.63125 51.4874372 244.401773 59.781369 253.1375 59.8561397 246.114051 65.0568422 248.742504 73.3969849"></polygon>
                <polygon id="Path-Copy-22" fill="#FFFFFF" points="109.035417 68.317264 101.924163 73.3969849 104.552616 65.0568422 97.5291667 59.8561397 106.264893 59.781369 109.035417 51.4874372 111.80594 59.781369 120.541667 59.8561397 113.518218 65.0568422 116.14667 73.3969849"></polygon>
                <polygon id="Path-Copy-23" fill="#FFFFFF" points="109.035417 112.136359 101.924163 117.21608 104.552616 108.875938 97.5291667 103.675235 106.264893 103.600465 109.035417 95.3065327 111.80594 103.600465 120.541667 103.675235 113.518218 108.875938 116.14667 117.21608"></polygon>
                <polygon id="Path-Copy-24" fill="#FFFFFF" points="107.939583 155.955455 100.82833 161.035176 103.456782 152.695033 96.4333333 147.494331 105.16906 147.41956 107.939583 139.125628 110.710107 147.41956 119.445833 147.494331 112.422384 152.695033 115.050837 161.035176"></polygon>
                <polygon id="Path-Copy-25" fill="#FFFFFF" points="133.14375 177.865003 126.032496 182.944724 128.660949 174.604581 121.6375 169.403878 130.373227 169.329108 133.14375 161.035176 135.914273 169.329108 144.65 169.403878 137.626551 174.604581 140.255004 182.944724"></polygon>
                <polygon id="Path-Copy-4" fill="#FFFFFF" points="109.035417 26.6891233 101.924163 31.7688442 104.552616 23.4287015 97.5291667 18.227999 106.264893 18.1532283 109.035417 9.85929648 111.80594 18.1532283 120.541667 18.227999 113.518218 23.4287015 116.14667 31.7688442"></polygon>
                <polygon id="Path-Copy-18" fill="#FFFFFF" points="86.0229167 48.598671 78.9116631 53.678392 81.5401157 45.3382493 74.5166667 40.1375468 83.2523933 40.0627761 86.0229167 31.7688442 88.79344 40.0627761 97.5291667 40.1375468 90.5057176 45.3382493 93.1341702 53.678392"></polygon>
                <polygon id="Path-Copy-19" fill="#FFFFFF" points="86.0229167 90.2268117 78.9116631 95.3065327 81.5401157 86.96639 74.5166667 81.7656875 83.2523933 81.6909168 86.0229167 73.3969849 88.79344 81.6909168 97.5291667 81.7656875 90.5057176 86.96639 93.1341702 95.3065327"></polygon>
                <polygon id="Path-Copy-20" fill="#FFFFFF" points="86.0229167 134.045907 78.9116631 139.125628 81.5401157 130.785485 74.5166667 125.584783 83.2523933 125.510012 86.0229167 117.21608 88.79344 125.510012 97.5291667 125.584783 90.5057176 130.785485 93.1341702 139.125628"></polygon>
                <polygon id="Path-Copy-21" fill="#FFFFFF" points="87.11875 179.547985 79.3302342 185.135678 82.2090156 175.961521 74.5166667 170.240749 84.0843673 170.158501 87.11875 161.035176 90.1531327 170.158501 99.7208333 170.240749 92.0284844 175.961521 94.9072658 185.135678"></polygon>
                <polygon id="Path-Copy-14" fill="#FFFFFF" points="65.2020833 68.317264 58.0908298 73.3969849 60.7192824 65.0568422 53.6958333 59.8561397 62.43156 59.781369 65.2020833 51.4874372 67.9726067 59.781369 76.7083333 59.8561397 69.6848843 65.0568422 72.3133369 73.3969849"></polygon>
                <polygon id="Path-Copy-15" fill="#FFFFFF" points="65.2020833 112.136359 58.0908298 117.21608 60.7192824 108.875938 53.6958333 103.675235 62.43156 103.600465 65.2020833 95.3065327 67.9726067 103.600465 76.7083333 103.675235 69.6848843 108.875938 72.3133369 117.21608"></polygon>
                <polygon id="Path-Copy-16" fill="#FFFFFF" points="107.939583 200.870028 100.82833 205.949749 103.456782 197.609606 96.4333333 192.408904 105.16906 192.334133 107.939583 184.040201 110.710107 192.334133 119.445833 192.408904 112.422384 197.609606 115.050837 205.949749"></polygon>
                <polygon id="Path-Copy-17" fill="#FFFFFF" points="64.10625 199.77455 56.9949964 204.854271 59.6234491 196.514129 52.6 191.313426 61.3357267 191.238655 64.10625 182.944724 66.8767733 191.238655 75.6125 191.313426 68.5890509 196.514129 71.2175036 204.854271"></polygon>
                <polygon id="Path-Copy-5" fill="#FFFFFF" points="196.702083 26.6891233 189.59083 31.7688442 192.219282 23.4287015 185.195833 18.227999 193.93156 18.1532283 196.702083 9.85929648 199.472607 18.1532283 208.208333 18.227999 201.184884 23.4287015 203.813337 31.7688442"></polygon>
            </g>
        </g>
    </g>
</svg>