<svg width="154px" height="210px" viewBox="0 0 154 210" version="1.1" xmlns="http://www.w3.org/2000/svg" xmlns:xlink="http://www.w3.org/1999/xlink">
    <!-- Generator: Sketch 46.2 (44496) - http://www.bohemiancoding.com/sketch -->
    <desc>Created with Sketch.</desc>
    <defs></defs>
    <g id="Page-1" stroke="none" stroke-width="1" fill="none" fill-rule="evenodd">
        <g id="Beer-can">
            <rect id="Rectangle-9" fill="#F5A623" style="mix-blend-mode: color-burn;" x="0" y="23" width="154" height="183" rx="16.5"></rect>
            <text id="12-Fl.-OZ" font-family="Phosphate-Solid, Phosphate" font-size="20" font-weight="normal" fill="#FFFFFF">
                <tspan x="42" y="160">12 Fl. OZ</tspan>
            </text>
            <text id="BEER" font-family="Phosphate-Solid, Phosphate" font-size="50" font-weight="normal" fill="#FFFFFF">
                <tspan x="26.4" y="103">BEER</tspan>
                <tspan x="129.6" y="103" font-size="20"></tspan>
                <tspan x="78" y="163" font-size="20"></tspan>
            </text>
            <path d="M17.081955,4 L134.509882,4 L134.509882,4 C141.385273,4 147.380426,8.67429931 149.057046,15.3421288 L154,35 L0,35 L4.90008892,13.6978331 L4.90008892,13.6978331 C6.20567266,8.02206615 11.2579633,4 17.081955,4 Z" id="Rectangle-11" fill="#F5A623"></path>
            <rect id="Rectangle-10" fill="#DCDCDB" x="5" y="0" width="143" height="8" rx="4"></rect>
            <polygon id="Rectangle-12" fill="#DCDCDB" transform="translate(78.000000, 206.500000) scale(1, -1) translate(-78.000000, -206.500000) " points="11.1401484 203 39.1352741 203 143.600043 203 148 210 8 210"></polygon>
        </g>
    </g>
</svg>