<svg width="94px" height="56px" viewBox="0 0 94 56" version="1.1" xmlns="http://www.w3.org/2000/svg" xmlns:xlink="http://www.w3.org/1999/xlink">
    <!-- Generator: Sketch 46.2 (44496) - http://www.bohemiancoding.com/sketch -->
    <desc>Created with Sketch.</desc>
    <defs></defs>
    <g id="Page-1" stroke="none" stroke-width="1" fill="none" fill-rule="evenodd">
        <g id="Lips" transform="translate(1.000000, 1.000000)" stroke-width="0.5" fill="#BE0000">
            <path d="M46.0310716,21.4325463 L91.944635,26.0794243 C78.1669494,11.394029 67.4153581,2.80825304 59.6898611,0.322096524 C55.2406773,-1.10970355 50.6681627,2.69600081 45.9723175,2.69600081 C40.911104,2.69600081 35.9931598,-0.993965937 31.2184849,0.669309365 C23.7561011,3.26885779 13.3499394,11.7388961 0,26.0794243 L46.0310716,21.4325463 Z" id="Oval-5" stroke="#BE0000" transform="translate(45.972317, 13.039712) rotate(360.000000) translate(-45.972317, -13.039712) "></path>
            <path d="M91.944635,26.0949721 C78.2229632,44.698324 62.8988574,54 45.9723175,54 C29.0457776,54 13.7216717,44.698324 2.27373675e-13,26.0949721 C20.2193187,28.9129714 35.4370134,30.321971 45.6530839,30.321971 C55.8691545,30.321971 71.2996715,28.9129714 91.944635,26.0949721 Z" id="Oval-5-Copy" stroke="#979797"></path>
        </g>
    </g>
</svg>