<svg width="41px" height="41px" viewBox="0 0 41 41" version="1.1" xmlns="http://www.w3.org/2000/svg" xmlns:xlink="http://www.w3.org/1999/xlink">
    <!-- Generator: Sketch 46.2 (44496) - http://www.bohemiancoding.com/sketch -->
    <desc>Created with Sketch.</desc>
    <defs>
        <polygon id="path-1" points="23.6911375 3.51520703 37.0816814 9.03624421 42.6282263 22.365207 37.0816814 35.6941699 23.6911375 41.215207 10.3005936 35.6941699 4.75404865 22.365207 10.3005936 9.03624421"></polygon>
        <filter x="-14.0%" y="-10.6%" width="129.2%" height="121.2%" filterUnits="objectBoundingBox" id="filter-2">
            <feMorphology radius="1" operator="dilate" in="SourceAlpha" result="shadowSpreadOuter1"></feMorphology>
            <feOffset dx="1" dy="0" in="shadowSpreadOuter1" result="shadowOffsetOuter1"></feOffset>
            <feGaussianBlur stdDeviation="0.5" in="shadowOffsetOuter1" result="shadowBlurOuter1"></feGaussianBlur>
            <feComposite in="shadowBlurOuter1" in2="SourceAlpha" operator="out" result="shadowBlurOuter1"></feComposite>
            <feColorMatrix values="0 0 0 0 0.816203773   0 0 0 0 0.00751322834   0 0 0 0 0.106696017  0 0 0 1 0" type="matrix" in="shadowBlurOuter1"></feColorMatrix>
        </filter>
    </defs>
    <g id="Page-1" stroke="none" stroke-width="1" fill="none" fill-rule="evenodd">
        <g id="stopsign" transform="translate(-4.000000, -3.000000)">
            <g id="Polygon" transform="translate(23.691137, 22.365207) rotate(67.500000) translate(-23.691137, -22.365207) ">
                <use fill="black" fill-opacity="1" filter="url(#filter-2)" xlink:href="#path-1"></use>
                <use fill="#CE0D00" fill-rule="evenodd" xlink:href="#path-1"></use>
                <path stroke="#FFFFFF" stroke-width="0.5" d="M23.7864324,3.2840818 L37.1769763,8.80511897 L37.3124948,8.94019645 L42.8590397,22.2691593 L42.8590397,22.4612548 L37.3124948,35.7902176 L37.1769763,35.9252951 L23.7864324,41.4463323 L23.5958425,41.4463323 L10.2052986,35.9252951 L10.0697801,35.7902176 L4.52323524,22.4612548 L4.52323524,22.2691593 L10.0697801,8.94019645 L10.2052986,8.80511897 L23.5958425,3.2840818 L23.7864324,3.2840818 Z"></path>
            </g>
            <text id="STOP" font-family="Helvetica-Bold, Helvetica" font-size="11.25" font-weight="bold" fill="#FFFFFF">
                <tspan x="8.43393555" y="25.4">STOP</tspan>
            </text>
        </g>
    </g>
</svg>