<svg width="45px" height="44px" viewBox="0 0 45 44" version="1.1" xmlns="http://www.w3.org/2000/svg" xmlns:xlink="http://www.w3.org/1999/xlink">
    <!-- Generator: Sketch 46.2 (44496) - http://www.bohemiancoding.com/sketch -->
    <desc>Created with Sketch.</desc>
    <defs>
        <polygon id="path-1" points="26.0602512 3.86672774 40.7898495 9.93986863 46.8910489 24.6017277 40.7898495 39.2635868 26.0602512 45.3367277 11.3306529 39.2635868 5.22945351 24.6017277 11.3306529 9.93986863"></polygon>
        <filter x="-13.5%" y="-9.8%" width="127.5%" height="119.5%" filterUnits="objectBoundingBox" id="filter-2">
            <feMorphology radius="1.05" operator="dilate" in="SourceAlpha" result="shadowSpreadOuter1"></feMorphology>
            <feOffset dx="1" dy="0" in="shadowSpreadOuter1" result="shadowOffsetOuter1"></feOffset>
            <feGaussianBlur stdDeviation="0.5" in="shadowOffsetOuter1" result="shadowBlurOuter1"></feGaussianBlur>
            <feComposite in="shadowBlurOuter1" in2="SourceAlpha" operator="out" result="shadowBlurOuter1"></feComposite>
            <feColorMatrix values="0 0 0 0 0.816203773   0 0 0 0 0.00751322834   0 0 0 0 0.106696017  0 0 0 1 0" type="matrix" in="shadowBlurOuter1"></feColorMatrix>
        </filter>
    </defs>
    <g id="Page-1" stroke="none" stroke-width="1" fill="none" fill-rule="evenodd">
        <g id="alto" transform="translate(-4.000000, -4.000000)">
            <g id="Polygon" transform="translate(26.060251, 24.601728) rotate(67.500000) translate(-26.060251, -24.601728) ">
                <use fill="black" fill-opacity="1" filter="url(#filter-2)" xlink:href="#path-1"></use>
                <use fill="#CE0D00" fill-rule="evenodd" xlink:href="#path-1"></use>
                <path stroke="#FFFFFF" stroke-width="0.55" d="M26.1650757,3.61248998 L40.894674,9.68563087 L41.0437443,9.8342161 L47.1449437,24.4960752 L47.1449437,24.7073803 L41.0437443,39.3692394 L40.894674,39.5178246 L26.1650757,45.5909655 L25.9554268,45.5909655 L11.2258285,39.5178246 L11.0767582,39.3692394 L4.97555877,24.7073803 L4.97555877,24.4960752 L11.0767582,9.8342161 L11.2258285,9.68563087 L25.9554268,3.61248998 L26.1650757,3.61248998 Z"></path>
            </g>
            <text id="ALTO" font-family="Helvetica-Bold, Helvetica" font-size="12.375" font-weight="bold" fill="#FFFFFF">
                <tspan x="9.73957886" y="28.84">ALTO</tspan>
            </text>
        </g>
    </g>
</svg>